<svg width="96" height="96" viewBox="0 0 96 96" fill="none" xmlns="http://www.w3.org/2000/svg">
<path fill-rule="evenodd" clip-rule="evenodd" d="M29.3216 8.0016H66.6776C80.2816 8.0016 87.9616 15.7176 88.0016 29.3216V66.6816C88.0016 80.2816 80.2816 88.0016 66.6776 88.0016H29.3216C15.7176 88.0016 8.0016 80.2816 8.0016 66.6816V29.3216C8.0016 15.7176 15.7176 8.0016 29.3216 8.0016ZM48.1976 71.4416C49.9216 71.4416 51.3576 70.1616 51.5176 68.4416V27.6816C51.6776 26.4416 51.0816 25.1976 50.0016 24.5216C48.8776 23.8416 47.5176 23.8416 46.4416 24.5216C45.3576 25.1976 44.7616 26.4416 44.8776 27.6816V68.4416C45.0816 70.1616 46.5176 71.4416 48.1976 71.4416ZM66.6016 71.4416C68.2816 71.4416 69.7176 70.1616 69.9216 68.4416V55.3216C70.0376 54.0376 69.4416 52.8416 68.3576 52.1616C67.2816 51.4816 65.9216 51.4816 64.8016 52.1616C63.7176 52.8416 63.1216 54.0376 63.2816 55.3216V68.4416C63.4416 70.1616 64.8776 71.4416 66.6016 71.4416ZM32.8776 68.4416C32.7176 70.1616 31.2816 71.4416 29.5576 71.4416C27.8376 71.4416 26.3976 70.1616 26.2416 68.4416V40.8016C26.1216 39.5576 26.7176 38.3216 27.8016 37.6416C28.8776 36.9616 30.2416 36.9616 31.3216 37.6416C32.3976 38.3216 33.0016 39.5576 32.8776 40.8016V68.4416Z" fill="#412D15"/>
</svg>
